<?xml version="1.0" encoding="utf-8"?>
<!-- Generator: Adobe Illustrator 21.0.0, SVG Export Plug-In . SVG Version: 6.00 Build 0)  -->
<svg version="1.2" baseProfile="tiny" id="Layer_1" xmlns="http://www.w3.org/2000/svg" xmlns:xlink="http://www.w3.org/1999/xlink"
	 x="0px" y="0px" viewBox="0 0 418.8 449.7" overflow="scroll" xml:space="preserve">
<title>Asset 2</title>
<g id="Layer_2">
	<g id="Layer_1-2">
		<path fill="#C2012F" d="M209.4,0c11.7,3.4,23,7.9,34.5,12c56.8,20.2,113.6,40.4,170.3,60.6c3.6,1.3,5,2.7,4.5,6.7
			c-3.1,24.9-6,49.8-8.8,74.7c-2.9,24.9-5.6,49.8-8.5,74.7c-3.1,27.1-6.3,54.3-9.5,81.4l-4.5,39c-0.2,1.6-0.6,2.7-2.2,3.5
			C327,384.8,268.8,417,210.5,449.3c-0.3,0.2-0.7,0.3-1.1,0.3v-38c4.4,0,8.8-0.3,13.1-0.9c11.4-1.7,21.8-5.3,29.6-14.4
			s10.3-19.9,10.5-31.3c0.3-20.6,0-41.2,0.1-61.9c0-2.5-0.8-2.8-3-2.8c-7.4,0.1-14.8,0.2-22.1,0c-3-0.1-3.7,0.8-3.6,3.7
			c0.1,20.2,0.1,40.5,0.1,60.7c-0.1,17.4-8.8,26.3-24.6,25.4V277.4c17,0,34,0,51-0.2c3.3,0,4.7,1,5.9,4c7.7,19.7,15.6,39.3,23.5,59
			c0.6,1.4,0.7,3.1,3.1,3.1c15.6-0.1,31.2-0.1,47.1-0.1c-0.8-1.8-1.3-3.3-2-4.7C302.3,258,266.5,177.5,230.8,97
			c-7-15.8-14.2-31.5-21.2-47.3C209.4,33.3,209.4,16.7,209.4,0z"/>
		<path fill="#FEDA55" d="M209.4,277.7v112.7c-13.1,0.4-22.3-8-22.5-21.7c-0.4-21.5-0.2-43-0.2-64.5c0-2.6-0.5-3.8-3.5-3.7
			c-7.4,0.2-14.7,0.2-22.1,0c-2.9-0.1-3.5,0.9-3.5,3.6c0.1,13.1,0,26.2,0.1,39.4c0.1,10.1-0.5,20.2,0.6,30.3
			c1.8,17.2,12,29.7,28.5,34.9c7.3,2.1,14.9,3.2,22.5,3v38c-11.5-5.6-22.4-12.1-33.5-18.3c-36.8-20.3-73.6-40.6-110.4-61.1
			c-10.5-5.8-20.9-11.6-31.4-17.4c-1.5-0.6-2.5-2.1-2.6-3.7c-1.9-16.8-3.9-33.7-5.8-50.5c-1.9-16.3-3.8-32.7-5.7-49
			c-1.6-14.1-3.2-28.2-4.8-42.4s-3.3-28.2-5-42.3s-3.2-28.5-4.8-42.7S2,94.1,0.4,80c-0.3-2.7-1.5-5.3,2.7-6.8
			C70.7,49.2,138.3,25.1,205.8,1c1.2-0.4,2.4-0.7,3.6-1v49.9c-0.6,1.2-1.4,2.4-1.9,3.6c-28.4,63.6-56.8,127.2-85.1,190.8
			c-14.2,31.8-28.3,63.6-42.6,95.4c-1.3,3-1,3.8,2.4,3.7c13.9-0.1,27.7-0.1,41.6,0c2.6,0,3.9-0.8,4.9-3.3
			c7.8-19.9,15.8-39.6,23.7-59.4c0.6-1.6,1-3.3,3.4-3.3C173.6,277.6,191.5,277.6,209.4,277.7z"/>
		<path fill="#FEFEFE" d="M209.4,277.7c-17.9-0.1-35.7-0.1-53.6-0.2c-2.4,0-2.8,1.7-3.4,3.3c-7.9,19.8-15.9,39.6-23.7,59.4
			c-1,2.5-2.2,3.3-4.9,3.3c-13.9-0.1-27.7-0.1-41.6,0c-3.4,0-3.7-0.8-2.4-3.7c14.3-31.8,28.4-63.6,42.6-95.4
			c28.4-63.6,56.8-127.2,85.1-190.8c0.6-1.2,1.3-2.4,1.9-3.6c7.1,15.8,14.2,31.5,21.2,47.3c35.8,80.5,71.6,161,107.3,241.5
			c0.6,1.5,1.2,2.9,2,4.7c-16,0-31.5,0-47.1,0.1c-2.4,0-2.5-1.7-3.1-3.1c-7.9-19.6-15.8-39.3-23.5-59c-1.2-3-2.6-4-5.9-4
			C243.4,277.7,226.4,277.6,209.4,277.7z M209.4,236.8h37.4c0.5-1.5-0.4-2.5-0.9-3.6c-8.2-19.8-16.3-39.6-24.7-59.3
			c-3.9-9.1-7.1-18.5-11.7-27.3c-0.2,0.1-0.5,0.1-0.6,0.3c-12.2,29.2-24.4,58.4-36.5,87.6c-0.9,2.2-0.1,2.6,1.9,2.5
			C185.9,236.8,197.6,236.8,209.4,236.8L209.4,236.8z"/>
		<path fill="#FEFEFE" d="M209.4,411.8c-7.6,0.2-15.2-0.9-22.5-3c-16.5-5.2-26.7-17.7-28.5-34.9c-1.1-10.1-0.5-20.2-0.6-30.3
			c-0.1-13.1,0-26.2-0.1-39.4c0-2.7,0.6-3.7,3.5-3.6c7.4,0.2,14.7,0.2,22.1,0c3-0.1,3.5,1,3.5,3.7c0,21.5-0.2,43,0.2,64.5
			c0.2,13.6,9.4,22,22.5,21.7c15.8,0.9,24.5-8,24.6-25.4c0.1-20.2,0.1-40.5-0.1-60.7c0-2.9,0.6-3.8,3.6-3.7c7.4,0.2,14.7,0.2,22.1,0
			c2.2,0,3,0.3,3,2.8c-0.1,20.6,0.1,41.2-0.1,61.9c-0.1,11.4-2.7,22.3-10.5,31.3s-18.2,12.7-29.6,14.4
			C218.1,411.6,213.7,411.6,209.4,411.8z"/>
		<path fill="#C2012F" d="M209.4,146.5c4.6,8.8,7.9,18.2,11.7,27.3c8.4,19.7,16.5,39.5,24.7,59.3c0.5,1.1,1.4,2.2,0.9,3.6h-37.4
			C209.4,206.7,209.4,176.6,209.4,146.5z"/>
		<path fill="#FEDA55" d="M209.4,146.5c0,30.1,0,60.2-0.1,90.3c-11.7,0-23.4,0.1-35.2,0.1c-2,0-2.8-0.3-1.9-2.5
			c12.2-29.2,24.4-58.4,36.5-87.6C208.9,146.6,209.2,146.6,209.4,146.5z"/>
	</g>
</g>
</svg>
